<svg width="512" height="512" viewBox="0 0 512 512" fill="none" xmlns="http://www.w3.org/2000/svg">
  <defs>
    <radialGradient id="bg" cx="0" cy="0" r="1" gradientUnits="userSpaceOnUse" gradientTransform="translate(170 145) rotate(48) scale(255)">
      <stop stop-color="#FFF67D" stop-opacity="0.95"/>
      <stop offset="0.35" stop-color="#FFD73A" stop-opacity="0.72"/>
      <stop offset="0.7" stop-color="#C79E08" stop-opacity="0.35"/>
      <stop offset="1" stop-color="#0B0B09" stop-opacity="0"/>
    </radialGradient>
    <linearGradient id="gold" x1="256" y1="76" x2="256" y2="425" gradientUnits="userSpaceOnUse">
      <stop stop-color="#FFF47B"/>
      <stop offset="0.45" stop-color="#FFD439"/>
      <stop offset="1" stop-color="#BE9400"/>
    </linearGradient>
    <filter id="glow" x="0" y="0" width="512" height="512" filterUnits="userSpaceOnUse" color-interpolation-filters="sRGB">
      <feGaussianBlur stdDeviation="18" result="blur"/>
      <feMerge><feMergeNode in="blur"/><feMergeNode in="SourceGraphic"/></feMerge>
    </filter>
  </defs>
  <rect width="512" height="512" rx="64" fill="#050505"/>
  <circle cx="256" cy="212" r="170" fill="url(#bg)" filter="url(#glow)"/>
  <circle cx="256" cy="212" r="146" stroke="url(#gold)" stroke-width="11"/>
  <circle cx="256" cy="212" r="116" stroke="#FFD84A" stroke-opacity="0.45" stroke-width="6"/>
  <path d="M170 274L212 247L254 259L298 220L348 190" stroke="#FFF07A" stroke-width="10" stroke-linecap="round" stroke-linejoin="round"/>
  <circle cx="170" cy="274" r="10" fill="#FFF07A"/>
  <circle cx="254" cy="259" r="10" fill="#FFF07A"/>
  <circle cx="348" cy="190" r="12" fill="#FFF07A"/>
  <path d="M238 366H274C311 366 341 396 341 433V438H171V433C171 396 201 366 238 366Z" fill="url(#gold)" fill-opacity="0.35" stroke="url(#gold)" stroke-width="10" stroke-linejoin="round"/>
</svg>
