<svg width="64" height="64" viewBox="0 0 64 64" fill="none" xmlns="http://www.w3.org/2000/svg">
  <defs>
    <filter id="glow" x="-50%" y="-50%" width="200%" height="200%">
      <feGaussianBlur stdDeviation="1.6" result="blur"/>
      <feMerge>
        <feMergeNode in="blur"/>
        <feMergeNode in="SourceGraphic"/>
      </feMerge>
    </filter>
  </defs>
  <g filter="url(#glow)" stroke="#FFD600" stroke-width="2.4" stroke-linecap="round" stroke-linejoin="round">
    <path d="M22 23.5C25.2 21.6 28.5 20.8 32 20.8C35.5 20.8 38.8 21.6 42 23.5"/>
    <path d="M21.2 25.2C18.9 28.1 17.7 31.9 17.8 36.2C21.1 38.7 24.1 40.2 27.6 41.2C28.7 39.8 29.6 38.3 30.2 36.8"/>
    <path d="M42.8 25.2C45.1 28.1 46.3 31.9 46.2 36.2C42.9 38.7 39.9 40.2 36.4 41.2C35.3 39.8 34.4 38.3 33.8 36.8"/>
    <path d="M26.4 43.1C28.3 44 30.1 44.4 32 44.4C33.9 44.4 35.7 44 37.6 43.1"/>
  </g>
  <circle cx="26.6" cy="31.8" r="2" fill="#FFD600"/>
  <circle cx="37.4" cy="31.8" r="2" fill="#FFD600"/>
</svg>
