<svg width="1500" height="500" viewBox="0 0 1500 500" fill="none" xmlns="http://www.w3.org/2000/svg">
  <defs>
    <linearGradient id="bg" x1="0" y1="0" x2="1500" y2="500" gradientUnits="userSpaceOnUse">
      <stop stop-color="#050505"/>
      <stop offset="0.55" stop-color="#090909"/>
      <stop offset="1" stop-color="#151106"/>
    </linearGradient>
    <radialGradient id="glow" cx="0" cy="0" r="1" gradientUnits="userSpaceOnUse" gradientTransform="translate(1180 190) rotate(152) scale(420 280)">
      <stop stop-color="#FFE45B" stop-opacity="0.35"/>
      <stop offset="0.55" stop-color="#FFD439" stop-opacity="0.12"/>
      <stop offset="1" stop-color="#0B0B09" stop-opacity="0"/>
    </radialGradient>
    <linearGradient id="gold" x1="0" y1="0" x2="1" y2="1">
      <stop stop-color="#FFF47B"/>
      <stop offset="1" stop-color="#C79900"/>
    </linearGradient>
  </defs>
  <rect width="1500" height="500" rx="36" fill="url(#bg)"/>
  <rect x="40" y="270" width="260" height="180" rx="90" fill="#0A0A0A" stroke="#26231A" stroke-dasharray="10 10"/>
  <text x="170" y="356" text-anchor="middle" fill="#6F6751" font-family="Inter, Arial, sans-serif" font-size="24" font-weight="700" letter-spacing="2">PROFILE PHOTO</text>
  <text x="170" y="387" text-anchor="middle" fill="#5C5645" font-family="Inter, Arial, sans-serif" font-size="17">Protected dead zone</text>
  <circle cx="1180" cy="220" r="162" fill="url(#glow)"/>
  <circle cx="1180" cy="220" r="130" stroke="url(#gold)" stroke-width="8"/>
  <circle cx="1180" cy="220" r="102" stroke="#FFE45B" stroke-opacity="0.35" stroke-width="4"/>
  <path d="M1134 174C1101 193 1095 268 1134 290" stroke="#17140A" stroke-opacity="0.45" stroke-width="7" stroke-linecap="round"/>
  <path d="M1226 174C1259 193 1265 268 1226 290" stroke="#17140A" stroke-opacity="0.45" stroke-width="7" stroke-linecap="round"/>
  <path d="M1138 196C1122 207 1114 219 1111 235" stroke="#17140A" stroke-opacity="0.32" stroke-width="4" stroke-linecap="round"/>
  <path d="M1222 196C1238 207 1246 219 1249 235" stroke="#17140A" stroke-opacity="0.32" stroke-width="4" stroke-linecap="round"/>
  <path d="M1164 345H1196C1228 345 1254 371 1254 403V408H1106V403C1106 371 1132 345 1164 345Z" fill="#FFD439" fill-opacity="0.3" stroke="url(#gold)" stroke-width="8" stroke-linejoin="round"/>
  <rect x="1274" y="106" width="118" height="38" rx="19" fill="#15130A" stroke="#FFE45B" stroke-opacity="0.45"/>
  <text x="1333" y="130" text-anchor="middle" fill="#FFF07A" font-family="Inter, Arial, sans-serif" font-size="18" font-weight="700" letter-spacing="3">TENNIS</text>
  <text x="640" y="184" fill="#FFE45B" font-family="Inter, Arial, sans-serif" font-size="22" font-weight="700" letter-spacing="4">CRYSTALBOB</text>
  <text x="640" y="252" fill="#F8F8F2" font-family="Inter, Arial, sans-serif" font-size="68" font-weight="800">Premium sports intel</text>
  <text x="640" y="322" fill="#F8F8F2" font-family="Inter, Arial, sans-serif" font-size="68" font-weight="800">inside one crystal-ball system.</text>
  <text x="640" y="372" fill="#BBB59D" font-family="Inter, Arial, sans-serif" font-size="24">NBA live now • MLB next • Tennis follows</text>
  <rect x="640" y="404" width="140" height="40" rx="20" fill="#15130A" stroke="#FFE45B" stroke-opacity="0.32"/>
  <rect x="792" y="404" width="132" height="40" rx="20" fill="#15130A" stroke="#FFE45B" stroke-opacity="0.32"/>
  <rect x="936" y="404" width="162" height="40" rx="20" fill="#15130A" stroke="#FFE45B" stroke-opacity="0.32"/>
  <text x="710" y="430" text-anchor="middle" fill="#FFF07A" font-family="Inter, Arial, sans-serif" font-size="18" font-weight="700">NBA live</text>
  <text x="858" y="430" text-anchor="middle" fill="#FFF07A" font-family="Inter, Arial, sans-serif" font-size="18" font-weight="700">MLB next</text>
  <text x="1017" y="430" text-anchor="middle" fill="#FFF07A" font-family="Inter, Arial, sans-serif" font-size="18" font-weight="700">Tennis build</text>
</svg>
